<svg id="ハンバーガー" xmlns="http://www.w3.org/2000/svg" xmlns:xlink="http://www.w3.org/1999/xlink" width="45.004" height="47.025" viewBox="0 0 45.004 47.025">
  <defs>
    <clipPath id="clip-path">
      <rect id="長方形_57" data-name="長方形 57" width="45.004" height="47.025" transform="translate(0 0)"/>
    </clipPath>
  </defs>
  <g id="グループ_795" data-name="グループ 795" transform="translate(0 0)">
    <g id="グループ_468" data-name="グループ 468" clip-path="url(#clip-path)">
      <path id="パス_122" data-name="パス 122" d="M44.591,38.452c-1.708-4.149-9.313-2.177-12.818-1.51-5.884,1.12-10.748,2.657-16.391,3.473l-2.714.386c-.029,0-.052.011-.08.015-2.575.368-4.217.383-4.506-.148-.162-.3.3-.755.956-1.217,2.29-1.206,5.04-2.647,5.041-2.648h0L39.021,25.775A5.111,5.111,0,0,0,41.656,22.9a1.4,1.4,0,0,0,.088-.792,4.717,4.717,0,0,0-.357-1.412c-1.707-4.148-5.636-1.587-9.141-.92-5.885,1.12-4.52.881-10.163,1.7,0,0-2.555.362-2.714.386-.2.029-.421.064-.645.1-2.318.338-3.087.3-3.406-.283-.27-.5,1.2-1.436,2.382-2.1l1.412-.735L28.174,14.6l9.739-4.552c8.194-3.826,7.035-6.071,7.035-6.071a4.717,4.717,0,0,0-.357-1.412C42.883-1.584,35.278.388,31.773,1.055c-5.884,1.12-10.748,2.656-16.391,3.473l-2.714.385a6.7,6.7,0,0,1-4.875-.585A7.544,7.544,0,0,0,4.165,3.7C1.9,4.019-.27,5.517.028,8.064c.274,2.348,3.043,3.685,7.075,2.8,11.412-2.514,22.257-4.387,27.461-5,0,0,.759-.047,1.662-.088C41,5.558,37.4,7.8,36.141,8.275c-.109.042-19.383,8.787-24.257,11.335-1.406.735-2.337,1.249-2.986,1.65a3.9,3.9,0,0,0-2.046,2.285l-.006.01h0a3.55,3.55,0,0,0-.12,1.455c.274,2.348,3.043,3.685,7.075,2.8,11.412-2.514,12.352-3.2,17.556-3.818,0,0,.285-.018.7-.04.016,0,4-.017,1.5,1.457C31.361,26.7,8.711,37.223,3.057,39.846c-1.807.59-3.278,1.981-3.029,4.1C.3,46.3,3.071,47.636,7.1,46.748c11.412-2.513,22.257-4.387,27.461-5,0,0,2.383-.147,3.746-.147s2.658.526,4.375.36,2.437-1.2,2.263-2.094a4.711,4.711,0,0,0-.357-1.411"/>
    </g>
  </g>
</svg>
