<?xml version="1.0" encoding="utf-8"?>
<!-- Generator: Adobe Illustrator 28.0.0, SVG Export Plug-In . SVG Version: 6.00 Build 0)  -->
<svg version="1.1" id="グループ_1011" xmlns="http://www.w3.org/2000/svg" xmlns:xlink="http://www.w3.org/1999/xlink" x="0px"
	 y="0px" viewBox="0 0 253 237.2" style="enable-background:new 0 0 253 237.2;" xml:space="preserve">
<style type="text/css">
	.st0{fill:#FFFFFF;}
	.st1{fill:#E95504;}
</style>
<path id="パス_137" class="st0" d="M154.4,93.3c-2.7-6.9-15.9-6.5-24-6.6c2.7-2.4,6.9-5.5,8-7.1c1.1-1.7,0.5-3.9-1.2-5
	c-0.1-0.1-0.2-0.1-0.4-0.2c-3.2-1.5-7.8,1-9.6,1.8c-1.2,0.6-3.4,1.1-4-0.2c-1.1-2.3,6.5-6.5,11.3-10c4.4-3.1,11.4-3.7,9.6-8
	c-1.3-3.1-6.9-1.6-9.5-1.1c-4.6,0.9-8.3,2.1-12.7,2.7c1.1-0.4,5-1.5,7-3c5.3-3.9,4.4-9.9,1.6-11.9c-2.3-1.6-6.2-1.3-6.7,0.3
	c-1,2.9,2.1,3.8,2.7,4.4c1.5,1.7,1.6,3.5,0.2,5c-3.1,2.9-7.2,4.5-11.5,4.5c-1.9-0.1-4.2,1.1-3.9,3.3c0.2,1.7,2.2,2.7,5.2,2.1
	c8.4-1.9,16.4-3.2,20.3-3.7c-0.4,0.2-7.2,5.3-13,8.6c-4.3,2.5-7,4.5-7.3,6.9c-0.3,3.1,2.1,3.9,4,4c3,0.2,5.9-1.2,8.1-1.7
	c2.1-0.4,2.9-0.4,3.3,0.5c0.4,1.2-0.6,3.5-5.8,7.7c0,0-14.2,0-22.2,4.3c-8.4,4.5-6.4,15.6,3.5,12.9c3.8-1,13.2-8.3,19.4-14
	c5.2,0,11,0,15.2,1.2c5,1.6,5.2,6.6,2.7,9.4c-1.5,1.6-10.6,8.7-19.1,11c-0.7,0.2-0.6,0.8,0,0.7c6.5-0.6,12.9-2.3,18.9-5.1
	C151.6,103.8,156.5,98.6,154.4,93.3 M108.1,97.6c-2.7,0.4-3.6-1.4-1.2-3.2c3.7-2.7,9.4-4.4,15.1-4.9C116,93.9,111.1,97.2,108.1,97.6
	"/>
<path id="パス_138" class="st0" d="M201.4,0.8c-4.8-1.5-9.3-0.6-12.3,0.1c-3.7,0.9-7.2,2.4-10.4,4.4c-0.2,0.1-0.1,0.2,0,0.1
	c4.3-1.9,12.2-2.9,13.5-2.9c3.7-0.1,6.7,1.4,7.3,3.1c0.6,1.6-0.7,4.9-2.9,5.6c-1.3,0.4-2.7,0.5-4.1,0.1c-1.8-0.6-1.6-2-1.4-2.3
	c0.1-0.1,0.2-0.2,0.3-0.3c0.2-0.1,0.1-0.3-0.2-0.3c-0.5,0-0.9,0.2-1.2,0.6c-0.4,0.8-0.3,1.7,0.3,2.5c0.8,1.3,4,2.4,6.9,1.9
	s7.4-2,8.2-6.5C205.9,4.2,204.6,1.8,201.4,0.8 M200.9,9.8c-0.1,0.1-0.2,0.1-0.1-0.2c0.7-1.4,0.9-2.9,0.6-4.4
	C201,3.6,200,2.9,198.3,2c-0.1,0-0.1-0.1,0-0.1s4.2,0.4,4.9,2.9C203.7,6.3,202.8,8.6,200.9,9.8"/>
<path id="パス_139" class="st0" d="M193.4,21.5c-3.4-0.2-8.1-0.2-12.8-0.4s-9.5-0.8-10.5-4.7c-0.9-3.4,2.5-6.7,4.9-8.8
	c0.1-0.1,0-0.1-0.1-0.1c-2.4,1.4-4.6,2.9-6.7,4.6c-2.8,2.4-5.9,5.6-4.7,8.5c1,2.5,3.5,3.5,5.9,3.7c4.3,0.4,9.3-0.6,13.2,0.1
	c2.2,0.4,5.9,1.7,7,5.9c0.9,3.1-0.4,5.2-1.8,7.4c-1.8,2.8-9.7,7.3-17.1,12c-1.3-5-4.1-9.6-8-13c-8.8-8.3-18.4-8.5-24.7-6
	c-1.1,0.4-0.9,1.3,0.3,1.3c7.7,0.3,15.1,3.4,20.9,8.5c5.6,5.4,9.1,12.6,10,20.3c0.1,1.1,1,1.3,1.3,0.2c0.8-2.7,1.1-5.6,0.8-8.4
	c2.5-1.4,13.4-8.5,15.7-9.6c3.8-1.6,7.4-3.5,11-5.6c5.2-3.3,6.9-7.9,6.2-10.2C202.8,23,198.4,21.9,193.4,21.5 M174.4,22.5
	c-1,0.1-6.6,0.1-7.8-2.5c-0.9-1.9,0.5-4.9,2.5-6.5c0.1-0.1,0.2,0,0.1,0.1c-1.2,1.5-1.4,3.6-0.6,5.3c1,1.9,5.2,3.2,5.8,3.4
	C174.4,22.3,174.6,22.5,174.4,22.5 M191.4,37.8c-0.3,0.2-0.5,0-0.2-0.2c1.4-1.5,2.6-5.4,2-7.5c-0.7-2.8-2.5-4.1-5.8-5.8
	c-0.4-0.2-0.4-0.6,0.1-0.5c0.6,0.1,6.9,1,8.7,4.9C197.2,31.1,195.3,35.1,191.4,37.8 M196.4,35.2c-0.3,0.2-0.4,0-0.2-0.2
	c1.3-1.3,2.5-4.6,1.9-6.4c-0.7-2.3-2.3-3.4-5.2-4.8c-0.3-0.2-0.4-0.5,0.1-0.4c0.6,0.1,6.3,0.8,7.8,4.1
	C201.8,29.5,200,32.8,196.4,35.2"/>
<path id="パス_140" class="st0" d="M96.1,138.3c-3.4-0.3-15.6-1.5-19.1-2.8c-3.5-1.3-6.4-7.5-6.6-10.9c-0.4-4.7,2.1-10.3,9.4-15.3
	c0.4-0.3,2.3-1.5,5.3-3.4c1.8,1.1,3.7,2,5.7,2.5c1.1,0.3,1.5-0.5,0.6-1.2c-6.1-4.8-10.3-11.6-11.9-19.2c-1.3-7.6,0-15.5,3.8-22.2
	c0.6-1,0-1.6-1-0.9c-5.5,4-10.3,12.3-8,24.2c0.9,5.5,3.6,10.6,7.7,14.5c-2.8,1.6-5.2,3-5.5,3.1c-3.6,1.7-7.4,3-11.2,4
	c-5.1,1.5-12,3.1-16.1,8.6c-2.7,3.6-2.6,10.9,1.4,14.2c5.4,4.5,11.9,4.6,19.5,5.4c5.7,0.6,18.7,1.3,26,3c2.6,0.6,4.4,2.5,4.5,4.7
	c0,6-3.7,8.7-7.9,10.8c-0.6,0.3-1.4,0.5-1.4,0.8c0,0.2,1.3-0.1,2.8-0.6c3.2-1,6.4-2.3,9.5-3.7c5-2.3,7.1-5.3,6.7-8.6
	C109.6,138.9,99.5,138.6,96.1,138.3 M58.3,133.7c-4-0.7-6.8-4.2-6.6-8.2c0-4.9,4.8-8.6,5.6-8.8c0.3-0.1,0.3,0.1,0.2,0.4
	c-1.8,2.5-2.8,5.4-2.9,8.5c0.1,3.3,1.1,6,4,7.8C58.7,133.5,58.5,133.8,58.3,133.7 M64.5,134.8c-4.1-0.8-7.3-4.5-7.4-10
	c-0.1-5.9,5.4-9.9,6.2-10.1c0.3-0.1,0.4,0.2,0.2,0.4c-1.6,2.5-3.4,6-3.3,9.7c0.1,3.9,1.3,7.3,4.5,9.5c0.1,0.1,0.2,0.2,0.1,0.4
	C64.7,134.7,64.6,134.8,64.5,134.8 M71.3,136.2c-4.5-1-8.1-5.1-8.2-11.3c-0.1-6.6,5.7-11.6,6.6-11.9c0.3-0.1,0.4,0.2,0.2,0.5
	c-2.2,3.4-3.4,7.4-3.4,11.5c0.1,4.4,1.4,8.2,5,10.7c0.1,0.1,0.2,0.3,0.1,0.4C71.6,136.1,71.5,136.2,71.3,136.2 M101.5,152.3
	c-0.2,0.1-0.5,0-0.3-0.2c1.2-1.6,1.8-3.4,1.9-5.4c-0.1-2-1-3.8-2.6-5c-0.4-0.3-0.2-0.3,0-0.3c1.9,0.3,4.3,2.1,4.6,4.5
	C105.5,148.8,103.9,150.9,101.5,152.3 M105.3,150.8c-0.2,0.1-0.4,0-0.3-0.2c1-1.3,1.7-2.9,1.8-4.6c-0.1-1.7-0.9-3.3-2.3-4.2
	c-0.4-0.2-0.1-0.3,0-0.2c1.7,0.2,3.9,1.7,4.1,3.7C108.9,147.8,107.4,149.6,105.3,150.8"/>
<path id="パス_141" class="st0" d="M144.5,120.2c-13.3,9.1-31.2,6.9-41.9-5.1c-0.8-0.8-1.5-0.5-1.2,0.7
	c2.1,6.4,8.5,13.6,20.5,15.1c12,1.5,19.9-3.9,23.5-9.7C146.1,120.1,145.4,119.6,144.5,120.2"/>
<path id="パス_142" class="st0" d="M173.3,73.7c2.1,7.5,1.5,15.4-1.7,22.5c-3.4,7-9.1,12.5-16.2,15.7c-1,0.5-0.9,1.3,0.3,1.3
	c6.8,0,15.6-3.9,20.7-14.8s2.4-20.2-1.9-25.4C173.8,72.2,173,72.6,173.3,73.7"/>
<path id="パス_143" class="st0" d="M87.4,52.6c5.4-15.2,21.2-24,36.9-20.5c1.1,0.2,1.5-0.5,0.6-1.2c-5.5-4-14.9-6-25.5-0.1
	S85.7,45.7,86.1,52.4C86.2,53.6,87,53.7,87.4,52.6"/>
<path id="パス_144" class="st1" d="M188.6,139.2C188.6,139.2,188.6,139.2,188.6,139.2c0,0-0.3,0.4-0.3,0.4
	c-0.4,0.3-0.6,0.8-0.5,1.3c0,0,0,0.5,0,0.5c0,0,0,1,0.7,1c0.4,0,0.8-0.7,0.8-1.2C189.2,139.6,188.6,139.2,188.6,139.2"/>
<path id="パス_145" class="st1" d="M183.7,122.7c0-0.1-0.1-0.2-0.1-0.3c0,0,0,0,0,0c0,0,0,0,0,0c0,0-1,0-1,0
	c-0.7,0-1.4-0.1-1.7,0.2c0,0-0.1,0.3-0.1,0.3c0,0,0,0.1,0,0.1c0,0.2,0,0.5,0,0.7c0,0,0,0,0,0c0,0,0.1,0,0.1,0c0,0,0.9,0,0.9,0
	c0.6,0.1,1.1,0.1,1.7-0.1c0,0,0,0,0,0c0,0,0,0,0,0c0-0.2,0.1-0.4,0.1-0.6C183.6,123,183.7,122.7,183.7,122.7"/>
<path id="パス_146" class="st1" d="M184.4,139.1L184.4,139.1C184.4,139.1,184.4,139.1,184.4,139.1L184.4,139.1z"/>
<path id="パス_147" class="st1" d="M191,114.9C191,114.9,191,114.9,191,114.9C191.1,114.9,191.1,114.9,191,114.9"/>
<path id="パス_148" class="st1" d="M191,114.9L191,114.9"/>
<path id="パス_149" class="st1" d="M197.4,128.5c0.4-1,0-3.7,0-5.2c0.2-2.8,0.2-5.7-0.1-8.5c0.1-2.2,0.2-1.5,0-2.5
	c-0.4-0.5,0.2-1.2-0.3-1.7c-0.7,0.1,0.2-0.9-0.9-1.6c-0.3-0.2-1.4-0.3-2.1-0.5c-3.6-0.8-9,0-13.6,0c-1.5,0.2-1.6,0.1-2.3,0.8
	c-1,1.1-0.1,1.4-0.6,2.5c-0.1,1.3,0,2.5,0.2,3.8c-0.4,0.7,0.2,3.1-0.5,4.5c0.7,0.9-0.2,1.7,0,2.6c0.4,0.6,0.2,1.3,0.2,2
	c-0.6,0.9,0.4,2-0.4,2.9c0.8,0.7,0.3,1.6,0,2.4c0.7,1.8-0.1,3.9,0.5,5.7c-0.8,0.8,0.2,1.8-0.5,2.6c0.1,0.2,0.6,0.4,0.4,0.8
	c-0.4,1.9,0.1,3.5-0.1,5.3c0.3,1.1-0.5,4,0.6,4.9c0.1-0.3,0.7,0.7,0.9,0.6c1.1,0.1,2.9,0.3,3.3,0.3c1.3,0.2,2.3-0.5,3.3,0.1
	c1-0.6,1.7,0.5,2.7-0.2c1.3-0.1,2.7-0.1,4,0v-0.2h0.1v0.2c1.8,0,3.4,0,4.5-0.7c0.4-1.2,0.5-2.5,0.3-3.8c0-2.1,0.2-5.7,0.1-6.7
	c0-0.5,0.4-1.1-0.1-1.5c0.7-2.1-0.5-4.2,0.2-6.4C197.1,130.1,198.1,129.2,197.4,128.5 M195.2,116.3c-0.3,0.4-2-0.3-2.3-0.6
	s-0.5-1.4-0.3-1.5C193.3,113.9,195.5,115.9,195.2,116.3 M187.7,114.9c0,0,1-0.4,1.1-0.5c0,0,0.6-0.2,0.6-0.1s0,0.2,0,0.2
	c0,1.1-1.3,1.8-2.3,2.3c0,0-0.3,0.3-0.5,0S186.9,115.4,187.7,114.9 M180.2,111.8c0.1-0.5,0.7-1.9,1.1-2s0,1.5,0,1.7
	c-0.1,0.3-0.2,0.6-0.2,0.9c0.3,0.1,0.6,0.1,1,0.1c0.1-0.2,0.2-0.5,0.3-0.7c0-0.1,0.1-0.3,0.1-0.4c0.2-0.5,0.6-1.6,0.8-1.5
	s0.3,0.9,0.3,0.9s0.1,0.4,0,0.5s-0.1,0.9-0.1,1s0,0.2,0,0.2c0-0.1,0.3,0.1,0.6,0.1s0.6-0.1,0.7-0.1c0.2-0.3,0.2-1,0.3-1.2
	s0.2-1.4,0.4-1.5s0.4,0.9,0.4,1.5c0-0.1,0.1,1.2,0.1,1.7c0,0.2,0,0.4-0.2,0.4c-0.7,0.1-1.5,0.1-2.2,0.1c0,0.1-0.4,1.3-0.8,1.3
	c-0.2,0-0.3-0.3-0.4-0.6c0-0.2-0.1-0.5,0-0.7c-0.2-0.2-0.5-0.1-0.7-0.1s-1.3-0.1-1.4-0.1C180.1,112.8,180.1,112.3,180.2,111.8
	 M193.6,113.1c0,0-1.2,0.1-1.4,0.1s-0.5-0.1-0.7,0.1c0,0.2,0,0.5,0,0.7c-0.1,0.3-0.2,0.5-0.4,0.6c-0.4,0-0.8-1.2-0.8-1.2
	c-0.7,0-1.5,0-2.2-0.1c-0.2,0-0.2-0.2-0.2-0.4c0-0.5,0.1-1.7,0.1-1.6c0-0.6,0.2-1.5,0.4-1.5s0.3,1.2,0.4,1.4s0,0.9,0.3,1.2
	c0,0,0.4,0.1,0.7,0.1s0.6-0.1,0.5,0c0,0,0-0.1,0-0.2s-0.1-0.8-0.1-1s0.1-0.5,0-0.5s0-0.8,0.2-0.9s0.6,0.9,0.8,1.5
	c0,0.1,0,0.3,0.1,0.4c0.1,0.2,0.2,0.5,0.3,0.7c0.3,0,0.6,0,1-0.1c0-0.3-0.1-0.6-0.2-0.8c0-0.2-0.4-1.6,0-1.6s1,1.4,1,1.9
	C193.6,112.1,193.6,112.6,193.6,113.1 M180.6,116.2c0.7,0,1.4-0.1,2.1-0.3c0.3-0.1,1.6-1.6,1.7-1.5s0.1,1.1,0,1.1
	c-0.1,0.3-0.3,1.2-0.5,1.3c-0.7,0.3-1.4,0.4-2.1,0.4c-0.8,0-1.2,0.1-1.2,0.1c0,0,0,1.1,0.1,1c0,0,0,0,0,0c1.8,0.1,3.5-0.3,4.1,0
	c0.3,0.1,0.4,0.4,0.3,0.7c-0.1,0.3-0.2,5-0.2,6.2s-0.4,5-0.7,5s-0.6-0.4-0.6-0.9c-0.1-0.7-0.1-1.3,0-2c0-0.6,0-2.3,0-2.3
	c0,0,0,0,0,0c0,0.1,0,0.1,0,0c-0.6-0.1-1.2-0.1-1.9,0c-0.2,0.1-0.4,0.1-0.7,0c-0.1,0-0.1,0-0.2,0c0,0.4-0.1,0.7-0.1,1.1
	c-0.1,0.8,0,1.1-0.1,1.5c-0.1,0.3-0.1,1.5-0.1,1.8s-0.4,0.7-0.6,0.7s-0.1-0.2-0.2-0.3c-0.2-0.5-0.2-1.1-0.2-1.6
	c0,0.1,0.1-3.3,0.1-3.4c0-1.4,0-2.9,0.3-4.3c0.2-0.2,0.4-0.3,0.7-0.4c0.9,0,0.5,1,0.5,1.1c0,0,0,0,0,0c0,0,0,0,0,0
	c0,0.1,0,0.2,0,0.3c0.2,0,0.4,0,0.6,0c0.4,0.1,0.8,0,1.2-0.1c0.3-0.1,0.5-0.1,0.8-0.2c0.1-0.6,0.1-1.2,0.1-1.8
	c-1.4,0.1-2.9,0.1-4.3,0c-0.1-0.1,0-0.7,0.1-1.1s-0.2-1.3,0.1-1.7S180.3,116.1,180.6,116.2 M180,148.5c-0.2,0-0.4-0.2-0.4-0.4
	c-0.1-0.1,0.2-0.8,0.8-1.9s0.9-6.4,1-6.4c0.2-0.9,0.3-1.9,0.3-2.8c0-1,0.1-2,0.3-3c0.2-0.4,1-0.2,1.5-0.1s0.5-0.1,2.8-0.1
	c1.1-0.2,2.2-0.3,3.2-0.4c0.9,0,2.6-0.1,2.6-0.1c0,0,0.1-1.4,0.1-1.7c-0.2,0.1-0.4,0-0.7,0.1c-1,0.1-2.1,0.1-3.1,0.1
	c-1-0.1-2,0-3,0.1c-1.1,0.1-2.2,0.1-3.3-0.2c-0.3-0.2,0.1-0.6,0.5-0.7s3.1-0.4,2.9-0.4c3-0.2,6.4-0.6,6.6-0.6s0.7-0.3,1.1,0
	s0.5,2.9,0.4,3.5s0,0,0,0c-0.1,0.1,0,0.7-0.3,1s-1,0.1-1.6,0.2s-4,0.3-4.3,0.2c-0.5-0.1-2.5,0.4-4,0.4c-0.1,0.1,0,0.1-0.2,0.8
	c0,1.3-0.2,2.5-0.4,3.8c0,0.7,0,1.4-0.2,2.1c-0.2,1.4-0.6,2.8-1,4.1C181.2,147,180.7,147.7,180,148.5 M187.8,125.2
	c0-0.1,2.2-0.3,2.6-0.3l0,0c0,0.1,0-0.6,0.1-1.2c0-0.4,0.1-0.8,0.3-1.1c0.2-0.2,0.5-0.1,0.5,0s0.3,2.1,0.3,2.2s0.3,0.1,0.7,0.1
	c0.5,0,0.9,0.1,1.3,0.3c0.1,0,0.5,0.6,0.3,0.7s-2.2,0-2.2,0c0,0.1,0.3,0.3,0.2,0.2c0,0,0.3,0.4,0.3,0.4c0.7,0.5,1.8,1.7,1.7,1.9
	s-0.3,0-0.5,0.1c-0.1,0,0,0.1-0.4,0s-1.7-1.7-1.6-1.7c0,0.1,0,0.2-0.1,0.2c0,0,0,1.8,0,2s-0.8,0.7-0.9,0.5s-0.1-0.8-0.1-0.8
	c0.1-0.1,0-2,0-2.1c0,0-0.4,0.4-0.4,0.4c0,0-0.6,0.6-0.8,0.8c-0.3,0.3-0.7,0.5-1.1,0.7c-0.1,0-0.1-0.2-0.1-0.4s0.7-0.9,0.9-1.1
	s1.3-1.2,1.3-1.1c-0.5,0-1,0-1.5,0c-0.2,0-0.3-0.1-0.5-0.2C187.8,125.6,187.7,125.4,187.8,125.2 M189.2,124.5
	c-0.4-0.4-0.6-0.8-0.9-1.2c0,0,0-0.5,0.4-0.5c0.2,0.2,0.5,0.3,0.7,0.5c0.3,0.3,0.6,0.3,0.6,0.5s0,0.7-0.1,0.7
	C189.7,124.6,189.4,124.6,189.2,124.5 M192.3,123.4c0.2-0.4,0.6-0.7,1-0.9c0.2,0.1,0.3,0.2,0.3,0.4c0,0.1-0.2,0.8-0.2,0.7
	c-0.2,0.3-0.5,0.7-0.6,0.8c-0.2,0.1-0.5,0-0.7-0.1C192,124.3,192.2,123.7,192.3,123.4 M190.6,140.9c0,0.9-0.4,1.7-1,2.4
	c-0.8,0.2-1.7,0.1-2.4-0.2c-0.4-0.6-0.6-1.3-0.6-2c0-0.4,0.1-0.9,0.3-1.2c0.3-0.4,0.6-0.9,0.9-1.3c0.2-0.2,0.1-0.4,0.1-0.4
	c-0.2-0.1-1.1-1-1.5-1.2c-0.2,0-0.9-0.6-0.7-0.9s1.1-0.1,2.2,0.6c0.3,0.2,0.5,0.5,0.7,0.8c0,0,0.1,0,0.2-0.1
	c0.5-0.6,1.1-1.1,1.7-1.5c0.5-0.4,1.1-0.3,1.2-0.1s-0.2,0.4-0.3,0.5c-0.2,0.2-0.7,0.9-1,1.1c-0.2,0.3-0.9,1.1-0.9,1.2c0,0,0,0,0,0
	C189.6,138.7,190.7,140,190.6,140.9 M189.5,148.2c-1.5,0.1-3,0-4.6-0.1c-1,0-1.9-0.1-2.9-0.3c-0.2-0.1,0.2-0.4,0.4-0.5
	c0.4-0.1,0.8-0.1,1.2-0.1c0.5,0,1.9-0.3,2.5-0.3c0.6,0,1.2-0.1,1.8-0.1c0-0.1-0.2-1.3-0.1-1.3c-0.1,0-1.5,0-1.9,0s-2,0.1-2.2-0.2
	c-0.1-0.8-0.1-1.7,0-2.5c0-1,0.1-1.9,0.2-2.9c0.1-0.3,0.2-0.9,0.3-0.9c0.3,0.3,0.5,0.7,0.6,1.1c0.1,0.1,0,1.2,0.2,1.6
	s0.2,2.3,0.3,2.4h0c0,0,0,0,0,0.1c0.8,0,1.5-0.1,2.3-0.2c0,0,1.7-0.1,1.9-0.1c0.6,0,1.2,0,1.8-0.2c0.6-0.4,0.6-2.7,0.6-3.2
	c0.1-0.6,0.2-1.1,0.5-1.7c0.1-0.2,0.2-0.1,0.3-0.1s0.4,2,0.5,2.3c0.1,0.4,0.1,0.7,0.2,1.1c0,0.4,0,2.3,0,2.7s-0.6,0.5-1,0.4
	c-0.9,0-1.7,0.1-2.5,0.2c-0.1,0-0.4,0-0.3,0c0.1,0.4,0.2,0.9,0.2,1.3c0.9,0.1,1.7,0.1,2.6,0.1c1,0.1,2,0.2,2.9,0.4
	c0.3,0.1,0.3,0.2,0.2,0.3S190.3,148.2,189.5,148.2 M195.9,128.6c-0.2,0.7-0.3,1.4-0.6,1.4s-0.4-0.9-0.4-0.9c0-1,0-1.9-0.1-2.9
	c-0.1-0.7,0-2.8-0.1-3c-0.1-0.2-0.2-0.4-0.3-0.5c-0.2-0.2-0.4-0.5-0.5-0.7c-0.3,0.2-0.7,0.3-1.1,0.4c-0.1,0-0.3,0.1-0.5-0.5
	c-0.2-0.4-1-1.3-0.9-1.5s0.7,0,0.9,0.2s0.8,1,0.8,1c0.1-0.2,0.2-0.3,0.3-0.4c0,0,0,0,0,0v0c0,0,0,0,0-0.1c-0.6-0.4-1.1-0.8-1.6-1.3
	c-0.2-0.2-0.1-0.4,0-0.6s0.1-0.1,0.5-0.1c0.7,0.4,1.3,0.9,1.8,1.5c0.1-0.1,0.3-0.1,0.4-0.3c-0.1-0.4-0.4-0.3-0.7-0.5
	s-0.6-1.1-1.1-1.3c-0.8-0.4-1.5-1-2-1.9c0,0-0.9,1.4-1.4,1.6s-1.1,0.7-1.1,0.7c0,0,0.3,0.2,0.3,0.4s-0.6,0.5-1.7,1.6
	c0.1,0.1,0.1,0.2,0.3,0.3s2-1.9,2.2-1.8s0.1,0.4,0,0.4c-0.3,0.6-0.8,1.1-1.3,1.5c-0.1,0.1-0.1,0.3,0,0.3s0.1,0,0.2,0.1
	s0.2,0,0.3-0.1c0.4-0.6,1-1,1.7-1.1c0.2,0,0.1-0.1,0.1,0.3c-0.2,1-1.5,1.4-1.6,1.6c-0.2,0.2-0.4,0.3-0.6,0.2
	c-0.2-0.1-0.3-0.1-0.5-0.1c0,0.3-0.4,0.6-0.3,0.8c-0.1-0.1,0,1.6-0.1,2.2s-0.1,0.9-0.2,2.1c-0.1,0.2-0.1,2.2-0.2,2.2
	c0,0.2-0.2,0.3-0.4,0.3s-0.5-0.1-0.6-0.7c-0.1-0.9-0.1-1.9-0.1-2.8c0-1,0.3-3.4,0.3-3.8s0.5-1,0.5-0.8c0-0.3-0.7-0.7-0.7-1.1
	s1.5-1.5,1.6-1.5c-0.2,0-0.3,0-0.4,0.1c-0.2,0.1-0.5,0.2-0.7,0.2c-0.5,0-0.7-0.1-0.7-0.2s0.1-0.2,0.5-0.4s1.4-0.4,1.6-0.6
	c0.7-0.9,1.5-1.7,2.3-2.4c0.4-0.3,0.9-0.6,1-0.7c0.1-0.1,0.2-0.1,0.3,0c0,0,0.1,0.1,0.1,0.1c0.1,0.1,2.6,2.2,3,2.5
	c0.5,0.2,0.9,0.5,1.4,0.8c0.1,0,0.3,0.4,0.5,0.6c0.1,0.1,0.4,0.2,0.3,0.4c-0.3,0-0.7,0-1,0c-0.4-0.1-0.3-0.2-0.6-0.3s-0.2,0-0.2,0
	s1.3,0.9,1.2,1.2s-0.8,0.9-0.7,0.9c0.4,0.6,0.7,1.2,0.8,1.9C195.9,123.3,196.1,127.9,195.9,128.6"/>
<path id="パス_150" class="st1" d="M195.6,119.1L195.6,119.1L195.6,119.1L195.6,119.1z"/>
<path id="パス_151" class="st0" d="M22.9,224.2c0.5,0,0.8,0.2,0.8,0.9c0.2,1.7,0.3,2.2,0.3,2.8c0,0.4-0.2,0.5-0.4,0.5
	c-0.3,0-0.5-0.2-0.6-0.5c-0.7-1.8-1-2.2-2.2-2.2c-0.3,0-0.5,0.1-0.7,0.3s-0.2,0.5-0.2,3.2v1.2c0,2,0,4.2,0.1,4.7
	c0.1,0.9,1.2,0.9,1.2,1.5c0,0.2-0.2,0.4-0.7,0.4c-0.4,0-1.3,0-1.8,0c-0.5,0-1.4,0-1.8,0c-0.5,0-0.7-0.2-0.7-0.4c0-0.6,1-0.5,1.2-1.5
	c0.1-0.4,0.1-3.1,0.1-4.7v-1.2c0-2.7-0.1-3-0.2-3.2s-0.3-0.3-0.7-0.3c-1.2,0-1.5,0.5-2.2,2.2c-0.1,0.3-0.3,0.5-0.6,0.5
	c-0.2,0-0.4-0.1-0.4-0.5c0-0.6,0.1-1.1,0.3-2.8c0.1-0.7,0.3-0.9,0.8-0.9c1,0,2,0,4.1,0S21.9,224.2,22.9,224.2"/>
<path id="パス_152" class="st0" d="M38.4,224.6c0,0.6-0.9,0.5-1,1.8c0,0.3,0,2.2,0,3.9c0,2,0,4.2,0.1,4.7c0.1,0.9,1,0.9,1,1.4
	c0,0.2-0.2,0.4-0.7,0.4s-1.1,0-1.6,0c-0.5,0-1.2,0-1.6,0c-0.5,0-0.7-0.2-0.7-0.4c0-0.6,0.9-0.5,1-1.4c0-0.3,0.1-2.3,0.1-3.5
	c0-0.5-0.1-0.7-0.5-0.7h-4.2c-0.4,0-0.6,0.1-0.6,0.7c0,1.3,0.1,3.2,0.1,3.5c0.1,0.9,1,0.9,1,1.4c0,0.2-0.2,0.4-0.7,0.4s-1.1,0-1.6,0
	c-0.5,0-1.2,0-1.6,0c-0.5,0-0.7-0.2-0.7-0.4c0-0.6,0.9-0.5,1-1.4c0.1-0.5,0.1-3.2,0.1-4.7c0-1.1,0-3.5,0-3.9c-0.1-1.3-1-1.2-1-1.8
	c0-0.3,0.1-0.5,0.6-0.5c0.4,0,1.1,0,1.6,0s1.2,0,1.6,0c0.5,0,0.6,0.2,0.6,0.5c0,0.6-0.7,0.5-0.9,1.3c-0.1,0.9-0.2,1.8-0.1,2.6
	c0,0.6,0.1,0.8,0.6,0.8h4.1c0.4,0,0.6-0.1,0.6-0.8c0-0.9,0-1.8-0.1-2.6c-0.2-0.7-0.9-0.8-0.9-1.3c0-0.3,0.1-0.5,0.6-0.5
	c0.4,0,1.1,0,1.6,0s1.2,0,1.6,0C38.3,224.2,38.4,224.4,38.4,224.6"/>
<path id="パス_153" class="st0" d="M48.4,231.6c0,0.5-0.1,0.7-0.4,0.7s-0.5-0.3-0.6-0.5c-0.3-0.7-0.5-1-2.2-1
	c-0.5,0-0.6,0.2-0.6,0.8v2.7c0,1.1,0.3,1.2,1.9,1.2c2.3,0,2.9-0.5,3.5-2.1c0.2-0.4,0.4-0.6,0.6-0.6s0.4,0.2,0.4,0.7
	c0,0.4-0.3,2.1-0.3,2.8c0,0.5-0.3,0.6-0.8,0.6c-0.5,0-1.7,0-3.5,0c-2.2,0-3.6,0-4.6,0c-0.5,0-0.7-0.2-0.7-0.4c0-0.6,0.9-0.5,1-1.4
	c0.1-0.5,0.1-3.1,0.1-4.7c0-1.1,0-3.5,0-3.9c-0.1-1.3-1-1.2-1-1.8c0-0.3,0.1-0.5,0.6-0.5c0.7,0,1.6,0,4.2,0c2.1,0,3,0,3.5,0
	c0.5,0,0.7,0.1,0.8,0.8c0.1,0.4,0.2,1.2,0.3,1.9c0.1,0.3,0.1,0.5,0.1,0.8c0,0.2-0.1,0.4-0.4,0.5c0,0,0,0-0.1,0
	c-0.3,0-0.5-0.4-0.7-0.8c-0.7-1.5-1-1.8-3.2-1.8c-1.6,0-1.8,0.1-1.8,1.1v2.1c0,0.6,0.1,0.8,0.5,0.8c1.9,0,2-0.4,2.4-1.1
	c0.1-0.2,0.2-0.3,0.4-0.3c0.3,0,0.4,0.3,0.4,1L48.4,231.6z"/>
<path id="パス_154" class="st0" d="M63.3,234.3c0,0.9,0.3,1.2,0.9,1.5c0.4,0.2,0.8,0.3,0.8,0.6c0,0.4-0.3,0.5-0.8,0.5
	c-0.4,0-1.5,0-2,0c-0.6,0-1.3,0-1.6,0c-0.5,0-0.7-0.2-0.7-0.4c0-0.6,0.9-0.5,1-1.4c0.1-0.5,0.1-3.1,0.1-4.7c0-1.1,0-3.5,0-3.9
	c-0.1-1.3-1-1.2-1-1.8c0-0.3,0.1-0.5,0.6-0.5c0.7,0,1.6,0,4.2,0c2.1,0,3,0,3.5,0c0.5,0,0.7,0.1,0.8,0.8c0.1,0.4,0.2,1.2,0.3,1.9
	c0.1,0.3,0.1,0.5,0.1,0.8c0,0.2-0.1,0.4-0.4,0.5c0,0,0,0-0.1,0c-0.3,0-0.5-0.4-0.7-0.8c-0.7-1.5-1-1.8-3.2-1.8
	c-1.6,0-1.8,0.1-1.8,1.1v2.3c0,0.6,0.1,0.8,0.5,0.8c1.9,0,2-0.4,2.4-1.1c0.1-0.2,0.2-0.3,0.4-0.3c0.3,0,0.4,0.3,0.4,1v2.5
	c0,0.5-0.1,0.7-0.4,0.7s-0.5-0.3-0.6-0.5c-0.3-0.7-0.5-1-2.2-1c-0.5,0-0.6,0.2-0.6,0.8L63.3,234.3z"/>
<path id="パス_155" class="st0" d="M82.4,232c0,3.5-1.7,5.1-4.9,5.1c-2.7,0-4.9-1.4-4.9-5.3c0-1.1,0-5,0-5.4c-0.1-1.3-1-1.2-1-1.8
	c0-0.3,0.1-0.5,0.6-0.5c0.4,0,1.1,0,1.6,0c0.5,0,1.2,0,1.6,0c0.5,0,0.6,0.2,0.6,0.5c0,0.6-0.8,0.5-1,1.8c0,0.3-0.1,3-0.1,5.1
	c0,2.8,1.3,3.8,2.9,3.8c1,0.1,2-0.4,2.5-1.3c0.3-0.6,0.4-1.7,0.4-3.9c0-1.4,0-2.8-0.2-4.2c-0.2-0.7-0.9-0.8-0.9-1.3
	c0-0.3,0.2-0.5,0.6-0.5c0.5,0,1,0,1.3,0c0.4,0,0.8,0,1.3,0s0.6,0.2,0.6,0.5c0,0.6-0.8,0.5-0.9,1.6c0,0.4-0.1,2.1-0.1,3.4
	C82.4,230.6,82.4,231.3,82.4,232"/>
<path id="パス_156" class="st0" d="M90.9,230.3c0-1.7,0-3.5,0-3.9c-0.1-1.3-1.3-1.1-1.3-1.8c0-0.3,0.1-0.5,0.6-0.5
	c0.4,0,1.4,0,1.9,0s1.1,0,1.5,0c0.5,0,0.6,0.2,0.6,0.5c0,0.6-0.8,0.5-0.9,1.8c0,0.4,0,3.8,0,4.9c0,3.5-0.8,5.8-4.3,5.8
	c-2.7,0-3.7-1.5-3.7-2.9c-0.1-0.9,0.6-1.7,1.5-1.8c0,0,0,0,0,0c0.8,0,1.1,0.5,1.1,0.9c0,0.4-0.4,0.8-0.4,1.4c0,0.6,0.4,1.2,1.4,1.2
	c1.5,0,2-1.4,2-3.7L90.9,230.3z"/>
<path id="パス_157" class="st0" d="M101.4,224.6c0,0.6-0.9,0.5-1,1.8c0,0.3,0,2.2,0,3.9c0,2,0,4.2,0.1,4.7c0.1,0.9,1,0.9,1,1.4
	c0,0.2-0.2,0.4-0.7,0.4s-1.1,0-1.6,0c-0.5,0-1.2,0-1.6,0c-0.5,0-0.7-0.2-0.7-0.4c0-0.6,0.9-0.5,1-1.4c0.1-0.5,0.1-3.2,0.1-4.7
	c0-1.1,0-3.5,0-3.9c-0.1-1.3-1-1.2-1-1.8c0-0.3,0.1-0.5,0.6-0.5c0.4,0,1.1,0,1.6,0s1.2,0,1.6,0C101.2,224.2,101.4,224.4,101.4,224.6
	"/>
<path id="パス_158" class="st0" d="M110.7,235c0.1,0.9,1.1,0.9,1.1,1.5c0,0.2-0.2,0.4-0.7,0.4c-0.4,0-1.2,0-1.8,0
	c-0.5,0-1.3,0-1.8,0c-0.5,0-0.7-0.2-0.7-0.4c0-0.6,1-0.5,1.2-1.5c0.1-0.4,0.1-1.6,0.1-2.8c0-0.8-0.7-1.9-1.7-3.5
	c-0.5-0.8-1.2-1.9-1.7-2.8c-0.5-0.7-1.1-0.7-1.1-1.2c0-0.4,0.4-0.5,0.9-0.5c0.4,0,0.8,0,1.6,0s1.2,0,1.7,0s0.7,0.2,0.7,0.5
	c0,0.4-0.7,0.7-0.7,1.2c0.5,1.4,1.2,2.7,2,3.8c0,0.1,0.1,0.1,0.2,0.1c0,0,0.1-0.1,0.1-0.1c0.8-1.2,1.4-2.4,1.8-3.8
	c0-0.7-0.7-0.8-0.7-1.2c0-0.3,0.2-0.5,0.7-0.5c0.4,0,1.1,0,1.5,0s0.7,0,1.1,0s0.5,0.2,0.5,0.5c0,0.5-0.5,0.5-1.2,1.4
	c-0.6,0.9-1.2,1.9-1.6,2.8c-0.8,1.4-1.6,2.7-1.6,3.4C110.6,233.2,110.6,234.1,110.7,235"/>
<path id="パス_159" class="st0" d="M119.7,226.6c0.2-0.5,0.3-1,0.4-1.6c0.1-0.5,1.2-1,1.8-1c0.4,0,0.6,0.3,0.7,0.7l3.9,10
	c0.2,0.4,0.4,0.8,0.8,1.1c0.2,0.1,0.4,0.3,0.4,0.6c0,0.4-0.3,0.5-1,0.5c-0.4,0-0.8,0-1.6,0s-1.1,0-1.6,0c-0.5,0-0.7-0.2-0.7-0.5
	c0-0.5,1-0.6,1-1.4c-0.1-0.5-0.3-1.1-0.6-1.6c-0.1-0.2-0.3-0.2-0.4-0.2h-3.6c-0.2,0-0.4,0.1-0.5,0.2c-0.3,0.5-0.5,1.1-0.6,1.7
	c0,0.8,0.9,0.8,0.9,1.3c0,0.3-0.2,0.5-0.7,0.5c-0.4,0-1.1,0-1.5,0s-0.6,0-1,0s-0.5-0.2-0.5-0.5c0-0.5,0.8-0.5,1.2-1.7L119.7,226.6z
	 M122.5,231.8c0.2,0,0.2-0.1,0.2-0.2c-0.4-1.4-0.9-2.8-1.5-4.2c0-0.1-0.1-0.2-0.2-0.2c-0.1,0-0.1,0.1-0.2,0.2
	c-0.6,1.4-1.1,2.8-1.6,4.2c0,0.1,0,0.2,0.2,0.2L122.5,231.8z"/>
<path id="パス_160" class="st0" d="M135.3,230.6c0-3.5,2.1-6.7,6-6.7c1,0.1,1.9,0.3,2.8,0.5c0.4,0,0.7-0.2,1-0.2
	c0.6,0,0.6,0.6,0.9,1.7c0.2,1.1,0.4,1.4,0.4,1.7c0,0.2-0.1,0.5-0.4,0.5c0,0,0,0-0.1,0c-0.4,0-0.7-0.5-1-1c-0.7-1.2-2-1.9-3.4-2
	c-2.3,0-3.6,2.2-3.6,4.8c0,3.3,1.9,5.5,4.1,5.5c0.8,0,1.6-0.3,2.2-1c0.3-0.5,0.4-1,0.3-1.5c0-1.6-0.3-1.7-0.7-1.9
	c-0.4-0.2-0.9-0.2-0.9-0.7c0-0.3,0.2-0.5,0.7-0.5c0.5,0,1.2,0,1.6,0c0.6,0,1,0,1.7,0c0.4,0,0.6,0.2,0.6,0.5c0,0.6-0.6,0.5-0.6,2.2
	c0,0.9,0,3.2,0,3.8c0,0.4-0.1,0.7-0.5,0.7c-0.2,0-0.4-0.1-0.6-0.5c-0.2-0.2-0.3-0.4-0.5-0.4c-0.4,0.1-0.7,0.2-1,0.4
	c-0.9,0.4-1.9,0.7-2.9,0.7C137.6,237.2,135.3,234.1,135.3,230.6"/>
<path id="パス_161" class="st0" d="M156.1,223.9c3.4,0,6.3,2.5,6.3,6.9c0,4.2-2.7,6.3-6.2,6.3c-3.9,0-6.3-2.7-6.3-6.5
	C149.9,226.7,152.5,223.9,156.1,223.9 M152.8,229.8c0,1.3,0.2,2.6,0.8,3.8c0.5,1.3,1.7,2.1,3.1,2.1c1.7,0,3.1-1.2,3.1-4
	c0-1.4-0.3-2.8-0.9-4.1c-0.5-1.3-1.7-2.2-3.1-2.3C154.3,225.3,152.8,226.7,152.8,229.8"/>
<path id="パス_162" class="st0" d="M177,224.6c0,0.6-0.9,0.5-1,1.8c0,0.3,0,2.2,0,3.9c0,2,0,4.2,0.1,4.7c0.1,0.9,1,0.9,1,1.4
	c0,0.2-0.2,0.4-0.7,0.4c-0.5,0-1.1,0-1.6,0c-0.5,0-1.2,0-1.6,0c-0.5,0-0.7-0.2-0.7-0.4c0-0.6,0.9-0.5,1-1.4c0-0.3,0.1-2.3,0.1-3.5
	c0-0.5-0.1-0.7-0.5-0.7h-4.2c-0.4,0-0.6,0.1-0.6,0.7c0,1.3,0.1,3.2,0.1,3.5c0.1,0.9,1,0.9,1,1.4c0,0.2-0.2,0.4-0.7,0.4s-1.1,0-1.6,0
	c-0.5,0-1.2,0-1.6,0c-0.5,0-0.7-0.2-0.7-0.4c0-0.6,0.9-0.5,1-1.4c0.1-0.5,0.1-3.2,0.1-4.7c0-1.1,0-3.5,0-3.9c-0.1-1.3-1-1.2-1-1.8
	c0-0.3,0.1-0.5,0.6-0.5c0.4,0,1.1,0,1.6,0c0.5,0,1.2,0,1.6,0c0.5,0,0.6,0.2,0.6,0.5c0,0.6-0.7,0.5-0.9,1.3c-0.1,0.9-0.2,1.8-0.1,2.6
	c0,0.6,0.1,0.8,0.6,0.8h4.1c0.4,0,0.6-0.1,0.6-0.8c0-0.9,0-1.8-0.1-2.6c-0.2-0.7-0.9-0.8-0.9-1.3c0-0.3,0.1-0.5,0.6-0.5
	c0.4,0,1.1,0,1.6,0c0.5,0,1.2,0,1.6,0C176.8,224.2,177,224.4,177,224.6"/>
<path id="パス_163" class="st0" d="M185.6,223.9c3.4,0,6.3,2.5,6.3,6.9c0,4.2-2.7,6.3-6.2,6.3c-3.9,0-6.3-2.7-6.3-6.5
	C179.5,226.7,182,223.9,185.6,223.9 M182.3,229.8c0,1.3,0.2,2.6,0.8,3.8c0.5,1.3,1.7,2.1,3.1,2.1c1.7,0,3.1-1.2,3.1-4
	c0-1.4-0.3-2.8-0.9-4.1c-0.5-1.3-1.7-2.2-3.1-2.3C183.8,225.3,182.3,226.7,182.3,229.8"/>
<path id="パス_164" class="st0" d="M196.5,224.2c0.3,0,0.7,0,1,0.1c0.3,0.1,0.5,0.4,1,1l4.6,6.6c0.3,0.4,0.5,0.6,0.6,0.6
	c0.1,0,0.1,0,0.1-2.4c0.1-1.4,0-2.9-0.3-4.3c-0.2-0.7-1-0.8-1-1.3c0-0.3,0.2-0.5,0.6-0.5c0.5,0,1,0,1.3,0c0.4,0,0.8,0,1.3,0
	s0.6,0.2,0.6,0.5c0,0.6-0.8,0.5-0.9,1.6c0,0.4-0.1,2.1-0.1,3.8c0,4.5,0.1,4.8,0.1,5.9c-0.1,0.6-0.6,1.1-1.3,1.1
	c-0.3-0.1-0.6-0.2-0.8-0.5l-5.9-8.2c-0.1-0.2-0.2-0.3-0.3-0.3c-0.1,0-0.2,0.2-0.2,2.7c-0.1,1.5,0,3,0.3,4.5c0.3,0.7,1,0.7,1,1.2
	c0,0.3-0.2,0.5-0.6,0.5c-0.5,0-1,0-1.3,0c-0.4,0-0.9,0-1.3,0c-0.4,0-0.6-0.2-0.6-0.5c0-0.6,0.9-0.5,1-1.6c0-0.4,0.1-2.1,0.1-4.4
	c0-2.2,0-3.6,0-3.9c-0.1-1.3-1-1.2-1-1.8c0-0.3,0.2-0.5,0.6-0.5C195.4,224.2,196.1,224.2,196.5,224.2"/>
<path id="パス_165" class="st0" d="M213.9,230.3c0-1.7,0-3.5,0-3.9c-0.1-1.3-1.3-1.1-1.3-1.8c0-0.3,0.1-0.5,0.6-0.5
	c0.4,0,1.4,0,1.9,0s1.1,0,1.5,0c0.5,0,0.6,0.2,0.6,0.5c0,0.6-0.8,0.5-0.9,1.8c0,0.4,0,3.8,0,4.9c0,3.5-0.8,5.8-4.3,5.8
	c-2.7,0-3.7-1.5-3.7-2.9c-0.1-0.9,0.6-1.7,1.5-1.8c0,0,0,0,0.1,0c0.8,0,1.1,0.5,1.1,0.9c0,0.4-0.4,0.8-0.4,1.4
	c0,0.6,0.4,1.2,1.4,1.2c1.5,0,2-1.4,2-3.7L213.9,230.3z"/>
<path id="パス_166" class="st0" d="M224.4,224.6c0,0.6-0.9,0.5-1,1.8c0,0.3,0,2.2,0,3.9c0,2,0,4.2,0.1,4.7c0.1,0.9,1,0.9,1,1.4
	c0,0.2-0.2,0.4-0.7,0.4s-1.1,0-1.6,0c-0.5,0-1.2,0-1.6,0c-0.5,0-0.7-0.2-0.7-0.4c0-0.6,0.9-0.5,1-1.4c0.1-0.5,0.1-3.2,0.1-4.7
	c0-1.1,0-3.5,0-3.9c-0.1-1.3-1-1.2-1-1.8c0-0.3,0.1-0.5,0.6-0.5c0.4,0,1.1,0,1.6,0s1.2,0,1.6,0C224.2,224.2,224.4,224.4,224.4,224.6
	"/>
<path id="パス_167" class="st0" d="M229.3,224.2c0.3,0,0.7,0,1,0.1c0.3,0.1,0.5,0.4,1,1l4.6,6.6c0.3,0.4,0.5,0.6,0.6,0.6
	c0.1,0,0.1,0,0.1-2.4c0.1-1.4,0-2.9-0.3-4.3c-0.2-0.7-1-0.8-1-1.3c0-0.3,0.2-0.5,0.6-0.5c0.5,0,1,0,1.3,0c0.4,0,0.8,0,1.3,0
	s0.6,0.2,0.6,0.5c0,0.6-0.8,0.5-0.9,1.6c0,0.4-0.1,2.1-0.1,3.8c0,4.5,0.1,4.8,0.1,5.9c-0.1,0.6-0.6,1.1-1.3,1.1
	c-0.3-0.1-0.6-0.2-0.8-0.5l-5.9-8.2c-0.1-0.2-0.2-0.3-0.3-0.3c-0.1,0-0.2,0.2-0.2,2.7c-0.1,1.5,0,3,0.3,4.5c0.3,0.7,1,0.7,1,1.2
	c0,0.3-0.2,0.5-0.6,0.5c-0.5,0-1,0-1.3,0c-0.4,0-0.9,0-1.3,0c-0.4,0-0.6-0.2-0.6-0.5c0-0.6,0.9-0.5,1-1.6c0-0.4,0.1-2.1,0.1-4.4
	c0-2.2,0-3.6,0-3.9c-0.1-1.3-1-1.2-1-1.8c0-0.3,0.2-0.5,0.6-0.5C228.2,224.2,228.9,224.2,229.3,224.2"/>
<path id="パス_168" class="st0" d="M3,197.1c2.5-1,6.1-1.1,6.1-4.5c0.1-0.7,0.1-1.4,0-2.1c-0.2-0.6,0-1.2,0.6-1.4c0,0,0,0,0,0
	c0.7-0.4,2.1,0.5,1.9,1.6c-0.2,1.3-0.3,2.6-0.3,4c-0.2,5.5-4,6.5-4.9,6.6s-3.1,0.4-4.4,0.7s-1.7-0.7-2.1-2.2S2.1,197.4,3,197.1
	 M38.5,199.8c-0.4,1.4-0.8,2.4-2.1,2.2s-3.5-0.6-4.4-0.7s-4.7-1.1-4.9-6.6c0-1.3-0.1-2.6-0.3-4c-0.2-1.1,1.2-2,1.9-1.6
	c0.6,0.2,0.8,0.8,0.6,1.4c0,0,0,0,0,0c-0.1,0.7-0.1,1.4,0,2.1c0,3.4,3.7,3.5,6.1,4.5C36.5,197.4,38.9,198.4,38.5,199.8 M17.2,203.2
	V203l0.3-12.9c0-0.5-0.1-1-0.2-1.5c-0.1-1.2,0.1-2.9-0.5-4c-0.3-0.7-1.3-2-1.3-2.7c0-0.5,0-1,0.5-1.3c0.7-0.9,1.8-1.5,2.9-1.4
	c1.9,0.2,3.4,1.8,3.4,3.8c-0.3,1.2-1.3,2.9-1.6,4.8c-0.2,1.3,0,5.8,0,9.2c0,0.5-0.1,1-0.1,1.4c0,0.4,0.1,0.8,0.1,1.2
	c0,1.1-0.3,2.2-0.3,3.2c-0.1,1.5,0.1,7.6-1.4,8S17.2,204.8,17.2,203.2"/>
<path id="パス_169" class="st0" d="M82.8,189.9c0-1.3-1.5-1.5-2.8-1.5c-0.3,0-0.7,0-1,0c-0.5,0-1.8-0.2-2.4-0.2
	c-1.5,0-4,0.1-5.9,0.2c-0.1-0.7-0.1-1.5-0.1-2.1c2.3,0.1,4.8,0.4,5.6,0.3c2.2-0.1,2.7-2,2.4-2.5c-0.5-0.8-2.8-0.7-3.8-0.6
	c-0.5,0-2.1,0.1-4,0.2c0.2-0.8,0.6-1.6,0.7-2.1c0-1.1-0.8-2.1-1.9-2.3c-0.7,0-1.3,0.3-1.7,0.8c-0.3,0.2-0.3,0.5-0.3,0.8
	c0.1,0.5,0.3,1,0.5,1.4c0.2,0.5,0.2,1,0.2,1.5c-1.5,0.1-2.9,0.1-3.4,0.1c-0.6,0-0.9-0.3-2-0.3c-1,0-1.3,2.4-1.3,2.4
	c0,0.4,0.3,1.1,0.8,1.1c0.5,0,1.8-0.6,2.8-0.6c0.6,0,2.1-0.1,3.2-0.2l-0.1,2.2c-2,0.2-6.2,0.6-6.6,0.7c-0.4,0-0.8-0.3-1.4-0.1
	c-0.9,0.3-1.5,1-1.6,1.9c-0.2,1,0,2.2,0.4,2.2c0.7,0,1.1-1,1.8-1.1c1.5-0.2,3.2-0.5,4.6-0.6c-1.6,3.3-4.3,6-7.6,7.7
	c-0.7,0.3-1.3,0.7-1.7,1.3c-0.2,0.1-0.5,0.2-0.7,0.2c-7.2-0.7-7.7,0.2-8.7,0.2c-0.5,0-0.8-0.2-1.6-0.3s-1.1,2.1-1.1,2.2
	c0,0.4,0.6,0.8,0.5,1.6c-0.3,1.2-0.5,2.5-0.5,3.7c0.1,1.1,0.3,2.8,1.1,2.9s2.5-1.6,5.7-1.8c1.8-0.1,3.6,0.1,5.4,0.6
	c1.2,0.1,1.3-0.7,1.5-2.9c0.1-0.4,0.2-0.9,0.2-1.4l0-2.1c0.1,0,0.1,0,0.2-0.1c0.9-0.5,2.6-1,3.2-1.4c1.3-0.9,2.3-2.1,3-3.5
	c0.1,0.2,0.1,0.4,0.1,0.6c0,0.5-0.7,7-0.6,8.1c0.1,1.2,0.3,2.9,1.2,3s2.9-1.8,6.2-1.9c1.9-0.1,3.8,0.1,5.7,0.6c2,0.4,1.6-0.6,1.8-3
	c0.1-0.7,0.2-2.9,0.2-3.6l0-4.4c0.2-0.5,0.7-1.1,0.7-1.5c0-0.9-1.2-1.6-1.9-1.6s-1,0.3-1.5,0.3c-7.9-0.7-8.4,0.2-9.5,0.2
	c-0.3,0-0.6-0.1-0.8-0.2c0.5-1.1,0.9-2.4,1.4-3.8c0.1,0,0.2,0,0.4,0c3.2,0,6.3,0.2,9.4,0.5c0.9,0.2,1.9,0.4,2.8,0.4
	c1.2-0.1,2.2-0.9,2.6-2C82.9,189.9,82.8,189.9,82.8,189.9 M56,204.9c-0.1,0.4-0.1,1.5-0.1,1.5c-1.2-0.4-2.5-0.6-3.8-0.6
	c-1.9,0-4.1,1.1-4.4,1s-0.7-0.1-0.7-0.5c-0.1-0.9,0-1.8,0.2-2.7c0.2-0.4,1-0.7,2.6-0.8c2-0.2,4-0.1,6,0.3
	C55.9,203.3,56,204.5,56,204.9 M66.6,199.2c0,0.2,0-1.5,0.5-1.8c0,0,7-0.3,8.2-0.3c0.8,0,1.2,0.2,1.2,1c0,0.7,0,1.4-0.2,2.1
	c-1.9-0.4-3.8-0.5-5.7-0.5c-1.3,0.1-3.1,0.5-3.7,0.5S66.6,199.4,66.6,199.2 M69.9,202c2.2-0.2,4.4-0.1,6.5,0.3
	c0.3,0.1,0.3,1.3,0.3,1.7s-0.1,0.9-0.1,0.9c-1.3-0.4-2.7-0.6-4.1-0.6c-2,0-5.3,1.2-5.6,1.1S66,205.4,66,205c-0.1-0.7,0-1.4,0.2-2.1
	C66.5,202.5,68.2,202.2,69.9,202"/>
<path id="パス_170" class="st0" d="M48.2,192.2c1.9-0.4,3.8-0.7,5.8-0.7c1.6,0,2.4-0.2,2.6-0.4c0.2-0.2,0.4-0.9,0.1-1.1
	c-0.8-0.5-1.7-0.8-2.7-0.8c-1.5,0-5.1,0.4-5.5,0.4s-0.7-0.2-1.2-0.1c-0.8,0.2-1.3,0.9-1.4,1.7c-0.1,0.9,0,1.9,0.4,2
	C47,193.2,47.6,192.3,48.2,192.2"/>
<path id="パス_171" class="st0" d="M46.1,198.7c0.7,0,1.3-1,2-1c1.9-0.4,3.8-0.6,5.7-0.7c1.7,0,2.9,0.4,3.1,0.2
	c0.2-0.1,0.7-1.3,0.1-1.8c-0.8-0.6-1.8-0.9-2.8-0.9c-1.6,0-5.4,0.4-5.8,0.5s-0.7-0.2-1.3-0.1c-0.8,0.2-1.4,0.9-1.5,1.8
	C45.5,197.5,45.7,198.7,46.1,198.7"/>
<path id="パス_172" class="st0" d="M44.8,188.5c0.7,0,1.3-1,2-1.1c2.9-0.4,5.9-0.6,8.8-0.7c1.8,0,3.9,0.4,4.2,0.2
	c0.2-0.1,0.7-1.3,0.1-1.8c-1.2-0.6-2.5-0.9-3.8-0.9c-0.5,0-1.4,0-2.5,0.1c0.2-1,0.7-2,0.8-2.7c0-1.1-0.8-2.1-1.9-2.3
	c-0.7,0-1.3,0.3-1.7,0.8c-0.3,0.2-0.3,0.5-0.3,0.8c0.1,0.5,0.3,1,0.5,1.4c0.2,0.7,0.3,1.4,0.2,2.1c-2,0.1-3.8,0.2-4,0.3
	c-0.4,0-0.8-0.3-1.3-0.1c-0.8,0.2-1.4,1-1.5,1.8C44.2,187.3,44.4,188.5,44.8,188.5"/>
<path id="パス_173" class="st0" d="M121.8,198.7c-5.4-2.2-10.3-5.7-14.2-10c1.5,0,2.9,0.1,4.3,0.2c1.2,0.1,2.4,0.1,3.7,0.1
	c1.4,0.1,2.7-0.7,3.4-1.9c0.1-0.4,0-0.4,0-0.5c0-1.7-2-1.9-3.7-1.9c-0.5,0-0.9,0.1-1.4,0c-0.6,0-2.4-0.2-3.2-0.2
	c-1,0.1-2,0.1-3.1,0.2c0.2-0.6,0.4-1.1,0.6-1.7c0.3-1.2-1.3-3.8-3.3-3.8c-1.1-0.1-2.2,0.5-2.8,1.4c-0.4,0.3-0.4,0.8-0.4,1.3
	c0,0.7,1,2,1.3,2.7c0,0.1,0.1,0.3,0.1,0.4l-0.1,0c-2.2,0.2-7.6,1-8.1,1.1c-0.6,0.1-1.1-0.3-1.9,0c-1.1,0.3-1.9,1.3-2,2.5
	c-0.2,1.3,0.1,2.8,0.6,2.9c1,0,1.5-1.4,2.4-1.5c3.1-0.5,5.1-1,7.6-1.2c0.3,0,0.3,0,0.8,0c-3.4,4.6-8.2,10.1-13.6,11
	c-2.1,0.3-3.2,1.3-2.9,2.7c0.3,1.4,0.7,2.4,2,2.2c1.2-0.3,3.3-0.4,4.2-0.7c2.2-0.7,4.9-5.4,11.5-12.5l-0.1,6.6
	c-1.3,0.1-2.2,0.6-3.2,0.7c-0.5,0-0.8-0.4-1.2-0.3c-0.7,0.1-1,1.5-0.8,2.4s0.5,1.7,1.2,1.8c0.4,0,1.1-0.5,1.4-0.7
	c1.9-0.9,2-0.9,2.5-0.9l0,1.9v0.2c0,1.5,0.4,8,1.8,7.7s1.2-6.5,1.3-8c0-0.6,0.1-1.3,0.2-1.9c0.1-0.1,0.3-0.1,0.4-0.1
	c0.4,0,2.2,0.4,3.6,0.6s1.8-1.9,1.4-2.4c-1.2-1.3-3.3-1.2-4.3-1.2c-0.3,0-0.6,0-1,0c0-0.3,0.1-0.6,0.1-0.9c0-1.8,0-3.9,0-5.7
	c6.3,5.6,9.3,10.4,11.8,11.6c0.8,0.4,3,0.4,4.2,0.7s1.6-0.7,2-2.2S122.7,199.1,121.8,198.7"/>
<path id="パス_174" class="st0" d="M168.2,202.1c-0.4-0.5-2.6,0.3-4,0.3c-1.1,0-5.1-0.6-9.7-0.7c0.1-0.6,0.2-1.3,0.2-1.9
	c0-0.2,0-0.5,0-0.7c1.2,0,2.4,0.1,3.2,0.2c1.3,0.1,1.2,0.3,2.5,0.4c2.5,0.2,2.5-0.7,2.8-3.2c0.1-0.7,0.2-1.4,0.2-2.1l0-3
	c0.3-0.5,0.8-1.2,0.8-1.6c0-0.9-1.3-1.7-2.1-1.7c-0.8,0-1.1,0.4-1.6,0.4c-2.3-0.2-3.7-0.3-5.7-0.3c0-0.1,0-0.1,0-0.2
	c0.1-0.6,0.3-1.2,0.5-1.8c2.9,0.1,5.6,0.4,6.4,0.3c2.5-0.1,3-2.3,2.8-2.8c-0.5-0.9-3.1-0.8-4.3-0.7c-0.4,0-1.5,0.1-3.7,0.2
	c0.2-1.2-1.3-3.7-3.3-3.7c-1.1-0.1-2.2,0.5-2.9,1.4c-0.4,0.3-0.4,0.8-0.4,1.3c0.1,0.4,0.2,0.9,0.5,1.2c-2.4,0.1-3.6,0.1-4.1,0.1
	c-0.6,0-1.1-0.3-2.2-0.4s-1.5,2.7-1.5,2.7c0,0.5,0.3,1.2,0.9,1.2s2.1-0.7,3.2-0.7c0.7,0,3-0.2,4.9-0.2c0.1,0.7,0.1,1.4,0.1,2.1
	c-3.5,0.1-5.1,0.4-5.9,0.4c-0.6,0-0.9-0.3-2-0.3s-1.3,2.4-1.3,2.4c0,0.4,0.7,0.9,0.6,1.8c-0.3,1.8-0.6,3.6-0.6,5.4
	c0.1,1.3,0.3,3.1,1.4,3.2s2-1.2,4-1.5c1.6-0.2,2.3-0.4,3.8-0.5l-0.1,2.7c-2,0.1-6.5,0.2-8.4,0.5c-2.3,0.3-6.4,1.1-4.9,3.1
	c0.3,0.4,1,0.5,1.1,1.5c0,0.5,0.4,1,0.9,0.8c2.6-1.1,5.2-2,8-2.7c1.1-0.2,2.3-0.2,3.4-0.2c0.1,2.4,0.6,6.4,1.7,6.2
	c1.1-0.2,1.2-3.8,1.3-6.2c0.9,0,1.7,0,2.3,0c4.5,0,5.2,1.5,8.3,1.9S168.5,202.5,168.2,202.1 M160.7,196.7c-1.3,0.1-2.5,0-3.8-0.2
	c-1.2-0.2-2.2,0-2.2-1c0-0.2,0-0.4,0-0.5c0.1-0.2,0.1-0.6,0.4-0.6s1.1,0.1,1.4,0.1c0.7,0,1.4,0.1,2,0.2c1,0.1,1.1,0,1.6,0.1
	S160.9,196.5,160.7,196.7 M155.4,190.4c0,0,0.9,0,1.5,0c2.1,0.2,3.1,0.6,3.2,0.9c0.2,0.3,0.3,0.7,0.3,1.1c0,0.3-0.2,0.4-0.4,0.5
	c-1.7-0.5-3.5-0.7-5.3-0.7l0-1.1c0-0.1,0-0.2,0-0.4C154.8,190.5,155.1,190.4,155.4,190.4 M145.6,191.5c1.4-0.5,3-0.8,4.5-0.7
	c0.4-0.1,0.8,0,1.2,0.1c0.1,0.1,0.2,0.3,0.2,0.5l0,0.7c0,0.2,0,0.4-0.1,0.6c-1.9,0.1-3.7,0.4-5.5,0.9c-0.2,0.1-0.3,0-0.5-0.2
	S145.3,191.6,145.6,191.5 M145.9,197.4c-0.2,0.1-0.6,0.3-0.8,0.1c-0.1-0.7,0-1.3,0.3-2c1.5-0.6,3.1-0.9,4.7-0.9
	c0.4,0,0.8,0.1,1.2,0.3c0.1,0.1,0.1,0.1,0.2,0.2l0,1.3C149.5,196.5,147.7,196.9,145.9,197.4"/>
<path id="パス_175" class="st0" d="M140.3,195.8c0-2-1.3-2.2-2.4-5c2.3-2,2.6-3.5,2.6-6.4c0-2.5-2.8-3.9-4.9-3.9
	c-1.4,0.1-2.7,0.2-4.1,0.6c-1.1,0.2-1.9,1.2-1.8,2.3c0,0.9,0.2,1.7,0.5,2.6c0.5,1.1,0.3,2.6,0.4,3.8c0,0.5,0.1,1,0.1,1.4l-0.3,12.2
	v0.2c0,1.5,0.3,7.2,1.4,6.9s1.2-5.6,1.2-7c0-0.4,0-0.9,0.1-1.3c0.1-0.2,0.3-0.4,0.5-0.6c1.8-1.6,4.6-2.4,6.3-3.7
	C140.4,197.6,140.3,196.4,140.3,195.8 M133.4,186.3c0-2.1,0.9-2.7,2.9-2.7c0.4,0,1.3-0.1,1.4,0.1c0.3,0.4,0.5,0.9,0.6,1.4
	c-0.1,0.9-0.5,1.7-1.2,2.3c-0.8,0.8-2.7,1.1-3.6,1.5c-0.3-0.1-0.3-0.5-0.3-0.7C133.2,187.6,133.4,186.9,133.4,186.3 M135.3,197.8
	c-0.5,0.1-1,0.2-1.6,0.4c-0.1,0-0.3-0.1-0.4-0.1c0-1.1,0-2.2,0-3.3c-0.2-0.9-0.1-1.8,0.1-2.7c0,0,2-0.5,2.4-0.5s2.3,3.4,2.2,3.9
	C137.7,196.8,136.6,197.8,135.3,197.8"/>
<path id="パス_176" class="st0" d="M210.8,204.3c-0.4-0.5-3.2,0.3-4.7,0.3c-1.5,0-10.2-0.8-12.3-0.8v-4.6c0-0.3,0-0.5,0-0.7
	c3,0.1,7,0.4,7.9,0.4c1.6,0,2.9-1.3,2.8-2.9c0-0.1,0-0.2,0-0.3c-0.5-0.9-3.2-0.8-4.4-0.7c-0.5,0-3.2,0.1-6.2,0.2c0-0.7,0-1.4,0-1.5
	c0-1.3,0.2-2.5,0.7-3.7c1.7,0,3.5,0,5.2,0.2c1.3,0.1,2.5,0.1,3.8,0.1c1.4,0.1,2.8-0.6,3.6-1.9c0.1-0.4,0-0.4,0-0.5
	c0-1.7-2.1-1.9-3.9-1.9c-0.5,0-1,0.1-1.5,0c-0.6,0-2.5-0.2-3.3-0.2c-2.8,0.1-6.1,0.1-8.5,0.3s-7.4,0.8-8,0.9s-1.1-0.3-1.9,0
	c-1.2,0.3-2,1.3-2.1,2.5c-0.2,1.3-0.1,2.6,0.7,2.9c1.4,0.4,2-1.1,2.9-1.3c2.5-0.5,5-0.9,7.5-1c0.4,0,0.9,0,1.4-0.1
	c0.3,0.3,0.4,0.7,0.4,2.2c0,0.2,0,2.4-0.1,3.1c-2.6,0.1-4.9,0.1-5.4,0.1c-0.6,0-1.1-0.3-2.3-0.4s-1.5,3.1-1.5,3.2
	c0,0.5,0.3,1.2,0.9,1.2s2.1-0.7,3.2-0.7c0.7,0,3.1-0.1,4.9-0.2c0.1,0.9,0.1,1.8,0.1,2.7c0,0.7,0,1.9-0.1,2.6
	c-1,0.2-9.1,0.3-11.8,0.6s-7.7,1.3-5.9,3.6c0.3,0.5,1.2,0.6,1.3,1.8c0,0.6,0.4,1.2,1.1,1c3.1-1.3,6.3-2.3,9.6-3.1
	c2.2-0.3,8.3-0.3,11.5-0.3c5.4,0,7.1,1.8,10.8,2.2S211.2,204.9,210.8,204.3"/>
<path id="パス_177" class="st0" d="M184.1,183.5c0.6,0,2.1-0.7,3.2-0.7c1,0,3.9-0.3,4.9-0.3c2.9,0,6.5,0.4,7.6,0.4
	c2.6-0.1,3.1-2.3,2.8-2.8c-0.5-0.9-3.2-0.8-4.4-0.7s-9.8,0.5-11.2,0.5c-0.6,0-1.1-0.3-2.3-0.4s-1.5,2.7-1.5,2.7
	C183.2,182.7,183.5,183.4,184.1,183.5"/>
<path id="パス_178" class="st0" d="M252.9,205.2c-0.4-0.5-2.6,0.3-3.9,0.3c-1.1,0-5.9-0.7-10.5-0.7c0-0.6,0-1.2,0.1-1.5
	c0-0.2,0.1-0.5,0.1-0.9l0.4,0c1.2,0,2.4,0,3.7,0.2c0.9,0.1,1.8,0.1,2.7,0.1c1,0,2-0.5,2.5-1.3c0.1-0.3,0-0.3,0-0.3
	c0-1.2-1.5-1.3-2.7-1.3c-0.3,0-0.7,0-1,0c-0.5,0-1.7-0.2-2.3-0.2c-0.9,0-2,0.1-3,0.1c0,0,0,0,0,0c-0.4-1.5-0.8-1.7-1-2.8
	c0.1-0.2,0.3-0.3,0.5-0.3c2,0.1,4,0.4,6,0.7c0.8,0.2,1.6-0.4,1.8-1.2c0-0.2,0-0.4,0-0.5c-0.5-1.2-0.9-2.3-1.2-3.5
	c1.8,0,2.2,0.8,3.3,0.8c1.2-0.3,2.3-1,3.1-2c0.3-0.5,0.4-1.1,0.1-1.6c-0.7-1.3-2.7-0.2-3.3-0.2c-1.8,0.2-5.7-0.4-8.9-0.5
	c-3.2-0.1-8.4,1-9.5,1c-1,0.1-2,0.3-2.9,0.5c-0.4,0-2.4-1-3.1-1.1s-1,1.6-1,1.7c0,0.3,0.2,0.7,0.5,0.8c0.4,0,0.8-0.1,1.1-0.1
	c-1.2,3.9-4,7.1-7.7,8.9c-1.6,0.7-2.4,2.1-1.9,3.3s1.3,2.1,2.3,1.7s2.5-1,3.1-1.4c1.7-1,4.3-4.7,6.7-12.6c0.6,0,0.4,1.6,1.1,1.7
	c1.8,0.4,2.4-1.3,4.2-1.1c0.5,0.2,0.4,0.2,0.4,0.2c-0.2,1.1-0.5,2.1-0.8,3.2c-0.4,0.1-0.8,0.2-1.2,0.2c-0.5,0-2.6,0.3-2.3,1.1
	c0.3,0.9,0.8,1.8,1.5,2.5c1.8-1,3.8-1.8,5.8-2.1c0.2,0,1.2,0,1.3,0c-0.4,0.3-1.1,0.7-0.9,1.7c0,0.1,0.2,1.3,0.2,1.4v0
	c0,0-0.1,0-0.1,0c-1.6,0.1-5.2,0.6-5.6,0.6s-0.8-0.2-1.4,0c-0.8,0.2-1.4,0.9-1.5,1.8c-0.1,0.9,0,1.9,0.5,2c1,0.3,1.4-0.7,2.1-0.9
	c1.7-0.4,3.5-0.6,5.2-0.7c0.2,0,0.5,0,0.8,0c0,0.1,0,0.2,0,0.3c0,0.3,0,1.3,0,2c-1.6,0.1-7.3,0.2-9.4,0.5c-2.2,0.3-6.3,1.1-4.8,3.2
	c0.3,0.4,1,0.5,1.1,1.6c0,0.5,0.4,1.1,0.9,0.8c2.5-1.1,5.1-2,7.8-2.8c1.8-0.3,6.8-0.2,9.4-0.2c4.4,0,5.8,1.5,8.9,1.9
	S253.3,205.6,252.9,205.2 M235,194.1c0-0.1,0-0.2,0-0.3c0-0.6,0.2-1.1,0.6-1.6c0.3-0.3,0.5-0.6,0.6-1c0.8-0.2,1.6-0.4,2.5-0.4
	c0.8,0.1,1.5,0.3,2.2,0.5c1.4,0.2,1.5,2.1,1.8,2.8c-1.3,0-2.2-0.8-4.1-0.9C236.9,193.2,236.2,194,235,194.1"/>
<path id="パス_179" class="st0" d="M223.1,183.7c0.6,0,2-0.7,3.1-0.7c0.9,0,6.4-0.3,7.5-0.3c4.5-0.3,8.9-0.2,13.4,0.4
	c-0.1,0.5-0.2,1-0.3,1.5c-0.1,0.2-0.3,0.3-0.5,0.3c-4-0.2-8-0.2-12,0c-4.7,0.3-5.9,0.4-7,0.2c-0.5,0-0.9-0.3-1.8-0.3
	s-1.2,2.3-1.2,2.3c0,0.4,0.2,1,0.7,1s1.5-0.5,2.5-0.6c4.5-0.6,9.1-0.9,13.7-0.9c1.7,0,4.6,0.3,5.4,0.3c1.1,0.1,2.3-1.2,2.5-2.3
	c0.2-1,2-2.3,2-3.4s-1.4-2-2.4-2s-1.2,0.4-1.8,0.4c-9.9-0.9-19.5,0.2-20.9,0.2c-0.6,0-1.1-0.3-2.2-0.4s-1.5,2.8-1.5,2.8
	C222.2,182.9,222.5,183.6,223.1,183.7"/>
</svg>
