<svg xmlns="http://www.w3.org/2000/svg" width="15.719" height="3.893" viewBox="0 0 15.719 3.893">
  <g id="グループ_2018" data-name="グループ 2018" transform="translate(0 -5.925)">
    <path id="パス_331" data-name="パス 331" d="M15.71,18.342a1.644,1.644,0,0,0-.125-.493c-.6-1.45-3.255-.761-4.48-.528-2.057.391-3.757.928-5.729,1.214l-.948.135c-.7.1-.942.432-1.78.084-.72-.3-1.188-.508-1.191-.509-.791.112-1.55.635-1.446,1.526.1.821,1.064,1.288,2.473.978,3.988-.879,7.779-1.533,9.6-1.749,0,0,.833-.051,1.31-.052a11.46,11.46,0,0,0,1.529.126c.6-.058.852-.418.791-.732" transform="translate(0 -11.027)"/>
  </g>
</svg>
