<svg xmlns="http://www.w3.org/2000/svg" width="28.668" height="37.033" viewBox="0 0 28.668 37.033">
  <path id="パス_1858" data-name="パス 1858" d="M48.707,47.115a4.774,4.774,0,0,0,2.651-4.277V18.949a4.779,4.779,0,0,0-4.779-4.779H27.456a4.791,4.791,0,0,0-4.766,4.779V42.838a4.774,4.774,0,0,0,2.659,4.277L22.694,51.2h4.34l2.309-3.582H44.7L47,51.2h4.349ZM28.661,17.756H45.387v2.389H28.661Zm17.918,5.971a1.193,1.193,0,0,1,1.193,1.193v8.365a1.193,1.193,0,0,1-1.193,1.193H27.456a1.193,1.193,0,0,1-1.193-1.193V24.92a1.193,1.193,0,0,1,1.193-1.193ZM28.661,42.838a2.385,2.385,0,1,1,2.389-2.389,2.385,2.385,0,0,1-2.389,2.389Zm14.328-2.389a2.372,2.372,0,1,1,.827,1.817A2.389,2.389,0,0,1,42.989,40.449Z" transform="translate(-22.69 -14.17)" fill="#040000"/>
</svg>
